# Blender 4.5.0
# www.blender.org
mtllib Generic1StageRoomCollider.mtl
o RoomCollide
v 9.800000 0.000000 12.800000
v -2.400000 0.800000 -1.200000
v 2.400000 0.800000 -1.200000
v -2.400000 3.000000 -1.200000
v 2.400000 3.000000 -1.200000
v -3.600000 0.800000 -1.000000
v -3.600000 3.000000 -1.000000
v 3.600000 0.800000 -1.000000
v 3.600000 3.000000 -1.000000
v 3.800000 0.000000 -0.400000
v 9.800000 0.000000 -0.400000
v 3.800000 3.800000 -0.400000
v 9.800000 0.000000 10.400001
v 9.800000 3.800000 10.400001
v 7.400000 0.000000 12.800001
v 7.400000 3.800000 12.800001
v -9.800001 0.000000 12.800001
v -9.800001 3.800000 12.800001
v -9.800001 0.000000 -0.399999
v -9.800001 3.800000 -0.399999
v -3.800001 0.000000 -0.399999
v -3.800001 3.800000 -0.399999
v 9.800000 3.800000 -0.400000
v 9.800000 3.800000 12.800000
vn -0.0000 1.0000 -0.0000
vn -0.0000 -0.0000 1.0000
vn 0.1644 -0.0000 0.9864
vn -0.1644 -0.0000 0.9864
vn -1.0000 -0.0000 -0.0000
vn -0.7071 -0.0000 -0.7071
vn -0.0000 -0.0000 -1.0000
vn 1.0000 -0.0000 -0.0000
vt 0.000000 0.000000
vt 1.000000 0.000000
vt 1.000000 1.000000
vt 0.000000 1.000000
s 0
f 17/1/1 1/2/1 11/3/1 19/4/1
f 2/1/2 3/2/2 5/3/2 4/4/2
f 2/1/3 4/4/3 7/4/3 6/1/3
f 5/3/4 3/2/4 8/2/4 9/3/4
f 10/1/2 11/2/2 23/3/2 12/4/2
f 23/3/5 11/2/5 13/2/5 14/3/5
f 14/3/6 13/2/6 15/2/6 16/3/6
f 16/3/7 15/2/7 17/2/7 18/3/7
f 18/3/8 17/2/8 19/2/8 20/3/8
f 20/3/2 19/2/2 21/2/2 22/3/2
f 18/1/1 24/2/1 23/3/1 20/4/1
