# Blender 4.5.0
# www.blender.org
o StageCollision
v -3.100000 0.000000 -0.300000
v 3.100000 0.000000 -0.300000
v 2.800000 0.000000 0.000000
v -2.800000 0.000000 0.000000
v -3.100000 3.500000 -0.300000
v 3.100000 3.500000 -0.300000
v 2.800000 3.500000 0.000000
v -2.800000 3.500000 0.000000
v -3.100000 3.100000 -0.300000
v 3.100000 3.100000 -0.300000
v 2.800000 3.100000 0.000000
v -2.800000 3.100000 0.000000
v -3.000000 3.100000 -0.400000
v -2.700000 3.100000 -0.100000
v 2.700000 3.100000 -0.100000
v 3.000000 3.100000 -0.400000
v -3.000000 3.300000 -0.400000
v -2.700000 3.300000 -0.100000
v 2.700000 3.300000 -0.100000
v 3.000000 3.300000 -0.400000
v 2.000000 3.300000 -1.400000
v -2.000000 3.300000 -1.400000
v -3.100000 0.800000 -0.300000
v 3.100000 0.800000 -0.300000
v 2.800000 0.800000 0.000000
v -2.800000 0.800000 0.000000
v -2.000000 0.800000 -1.400000
v 2.000000 0.800000 -1.400000
v -2.000000 0.800000 -1.200000
v 2.000000 0.800000 -1.200000
v -2.000000 2.800000 -1.200000
v 2.000000 2.800000 -1.200000
v 2.800000 0.800000 -0.400000
v 2.800000 2.800000 -0.400000
v -2.800000 0.800000 -0.400000
v -2.800000 2.800000 -0.400000
vn -0.7071 -0.0000 0.7071
vn -0.0000 -0.0000 1.0000
vn 0.7071 -0.0000 0.7071
vn -0.0000 1.0000 -0.0000
vn -0.0000 -0.0000 -1.0000
vn 0.7071 -0.0000 -0.7071
vn -0.7071 -0.0000 -0.7071
vn -0.0000 -1.0000 -0.0000
vt 0.000000 0.000000
vt 0.000000 1.000000
vt 1.000000 1.000000
vt 0.250000 1.000000
vt 0.500000 1.000000
vt 1.000000 0.000000
s 0
f 8/1/1 5/2/1 9/2/1 12/1/1
f 7/1/2 8/1/2 12/1/2 11/1/2
f 6/3/3 7/1/3 11/1/3 10/3/3
f 14/1/2 15/1/2 19/1/2 18/1/2
f 13/1/1 14/1/1 18/1/1 17/1/1
f 15/1/3 16/1/3 20/1/3 19/1/3
f 20/1/4 21/1/4 22/1/4 17/1/4 18/1/4 19/1/4
f 4/4/2 3/5/2 25/5/2 26/4/2
f 3/5/3 2/3/3 24/3/3 25/5/3
f 1/2/1 4/4/1 26/4/1 23/2/1
f 23/2/4 26/4/4 25/5/4 24/3/4 28/1/4 27/1/4
f 21/1/5 28/1/5 27/1/5 22/1/5
f 10/1/6 24/3/6 28/1/6 21/1/6 20/1/6 16/1/6
f 9/1/7 13/1/7 17/1/7 22/1/7 27/1/7 23/2/7
f 12/1/8 9/1/8 13/1/8 14/1/8
f 11/1/8 12/1/8 14/1/8 15/1/8
f 10/1/8 11/1/8 15/1/8 16/1/8
f 29/1/2 30/6/2 32/3/2 31/2/2
f 32/3/1 30/6/1 33/6/1 34/3/1
f 29/1/3 31/2/3 36/2/3 35/1/3
