# Blender 4.5.0
# www.blender.org
o RoomCollide
v 9.800000 0.000000 12.800000
v 3.800000 0.000000 -0.400000
v 9.800000 0.000000 -0.400000
v 3.800000 3.800000 -0.400000
v 9.800000 0.000000 10.400001
v 9.800000 3.800000 10.400001
v 7.400000 0.000000 12.800001
v 7.400000 3.800000 12.800001
v -9.800001 0.000000 12.800001
v -9.800001 3.800000 12.800001
v -9.800001 0.000000 -0.399999
v -9.800001 3.800000 -0.399999
v -3.800001 0.000000 -0.399999
v -3.800001 3.800000 -0.399999
v 9.800000 3.800000 -0.400000
v 9.800000 3.800000 12.800000
vn -0.0000 1.0000 -0.0000
vn -0.0000 -0.0000 1.0000
vn -1.0000 -0.0000 -0.0000
vn -0.7071 -0.0000 -0.7071
vn -0.0000 -0.0000 -1.0000
vn 1.0000 -0.0000 -0.0000
vt 0.000000 0.000000
vt 1.000000 0.000000
vt 1.000000 1.000000
vt 0.000000 1.000000
s 0
f 9/1/1 1/2/1 3/3/1 11/4/1
f 2/1/2 3/2/2 15/3/2 4/4/2
f 15/3/3 3/2/3 5/2/3 6/3/3
f 6/3/4 5/2/4 7/2/4 8/3/4
f 8/3/5 7/2/5 9/2/5 10/3/5
f 10/3/6 9/2/6 11/2/6 12/3/6
f 12/3/2 11/2/2 13/2/2 14/3/2
f 10/1/1 16/2/1 15/3/1 12/4/1
